<?xml version="1.0" encoding="UTF-8" standalone="no"?>
<svg
   width="32"
   height="21.542969"
   viewBox="0 0 32 21.542969"
   fill="none"
   version="1.1"
   id="svg31"
   sodipodi:docname="menu-open.svg"
   xmlns:inkscape="http://www.inkscape.org/namespaces/inkscape"
   xmlns:sodipodi="http://sodipodi.sourceforge.net/DTD/sodipodi-0.dtd"
   xmlns="http://www.w3.org/2000/svg"
   xmlns:svg="http://www.w3.org/2000/svg">
  <sodipodi:namedview
     id="namedview33"
     pagecolor="#505050"
     bordercolor="#eeeeee"
     borderopacity="1"
     inkscape:showpageshadow="0"
     inkscape:pageopacity="0"
     inkscape:pagecheckerboard="0"
     inkscape:deskcolor="#505050"
     showgrid="false" />
  <defs
     id="defs29">
    <clipPath
       id="clip0_297053_2156">
      <rect
         width="32"
         height="22"
         fill="#ffffff"
         id="rect26"
         x="0"
         y="0" />
    </clipPath>
  </defs>
  <g
     id="g640"
     inkscape:export-filename="g640.svg"
     inkscape:export-xdpi="96"
     inkscape:export-ydpi="96">
    <g
       id="g147"
       style="fill:#2e2f42"
       inkscape:export-filename="g147.svg"
       inkscape:export-xdpi="96"
       inkscape:export-ydpi="96">
      <g
         clip-path="url(#clip0_297053_2156)"
         id="g24">
        <g
           id="path22">
          <path
             style="color:#000000;stroke-width:3;stroke-linecap:round;stroke-linejoin:round;-inkscape-stroke:none"
             d="M 1.34766,20.0431 H 30.8861 M 1.34766,10.7354 H 30.8861 M 1.34766,1.42773 H 30.8861"
             id="path1439" />
          <path
             style="color:#000000;stroke-linecap:round;stroke-linejoin:round;-inkscape-stroke:none"
             d="m 1.3476562,-0.07226562 a 1.5,1.5 0 0 0 -1.49999995,1.50000002 1.5,1.5 0 0 0 1.49999995,1.5 H 30.886719 a 1.5,1.5 0 0 0 1.5,-1.5 1.5,1.5 0 0 0 -1.5,-1.50000002 z m 0,9.30859372 a 1.5,1.5 0 0 0 -1.49999995,1.4999999 1.5,1.5 0 0 0 1.49999995,1.5 H 30.886719 a 1.5,1.5 0 0 0 1.5,-1.5 1.5,1.5 0 0 0 -1.5,-1.4999999 z m 0,9.3066409 a 1.5,1.5 0 0 0 -1.49999995,1.5 1.5,1.5 0 0 0 1.49999995,1.5 H 30.886719 a 1.5,1.5 0 0 0 1.5,-1.5 1.5,1.5 0 0 0 -1.5,-1.5 z"
             id="path1441" />
        </g>
      </g>
    </g>
    <path
       style="fill:#2e2f42;stroke-width:0.0568788"
       d="M 0.73626136,12.065487 C 0.57810511,11.991841 0.35414489,11.821114 0.23857197,11.686093 L 0.0284394,11.4406 v -0.692213 c 0,-0.669489 0.0052788,-0.699495 0.16080266,-0.914042 C 0.27768352,9.7123388 0.48884602,9.5357292 0.65849207,9.4418792 L 0.96693944,9.2712428 15.980795,9.2564972 C 32.53953,9.2402344 31.366643,9.2153895 31.79499,9.5914836 l 0.19933,0.1750133 v 0.9865921 0.986592 l -0.198961,0.151754 c -0.424885,0.324076 0.609497,0.303913 -15.698661,0.306013 l -15.0728798,0.0019 -0.28755684,-0.133902 z"
       id="path586" />
    <path
       style="fill:#2e2f42;stroke-width:0.0568788"
       d="M 1.0708229,2.8701729 C 0.69225953,2.7948123 0.41705816,2.6177995 0.15592675,2.2817007 0.03955469,2.1319198 0.0284394,2.0561824 0.0284394,1.4130283 V 0.70844319 L 0.25821239,0.45916891 C 0.38458755,0.32206806 0.5740228,0.16906721 0.67917968,0.11916702 0.85271955,0.03681696 2.2787023,0.0284394 16.122338,0.0284394 c 13.934705,0 15.267685,0.0079433 15.433996,0.09197147 0.439885,0.22225263 0.437986,0.21658524 0.437986,1.30641743 v 0.980408 L 31.809464,2.5631087 C 31.374,2.930296 32.735704,2.8999803 16.267334,2.9091241 8.039817,2.913692 1.201387,2.8961643 1.0708229,2.8701729 Z"
       id="path588" />
    <path
       style="fill:#2e2f42;stroke-width:0.0568788"
       d="M 0.93850004,21.462586 C 0.66590736,21.388262 0.31215682,21.136505 0.15718083,20.906536 0.04102828,20.734177 0.0284394,20.648063 0.0284394,20.025882 c 0,-0.685986 9.1956e-4,-0.690729 0.17482381,-0.901705 0.0961531,-0.116651 0.29451789,-0.282454 0.4408106,-0.368452 L 0.91006065,18.599364 15.98294,18.583286 c 11.419282,-0.01218 15.132135,1.35e-4 15.317337,0.05081 0.134452,0.03679 0.345615,0.14017 0.46925,0.229731 l 0.224793,0.162839 v 1.015726 1.015726 l -0.224557,0.155618 c -0.478402,0.331532 0.611644,0.310176 -15.644626,0.306508 -9.3249676,-0.0021 -15.0627759,-0.02389 -15.18663696,-0.05766 z"
       id="path590" />
    <path
       style="fill:#2e2f42;stroke-width:0.0568788"
       d="M 0.73942428,12.066673 C 0.5830076,11.99368 0.35904736,11.827485 0.24173486,11.697353 L 0.0284394,11.460749 v -0.702287 c 0,-0.680546 0.0049781,-0.709155 0.16080266,-0.924117 C 0.27768352,9.7123388 0.48884602,9.5357292 0.65849207,9.4418792 L 0.96693944,9.2712428 H 16.096698 31.226456 l 0.255955,0.1209214 c 0.51573,0.2436484 0.511909,0.2335156 0.511909,1.3572478 v 0.990269 l -0.198961,0.151754 c -0.424885,0.324076 0.609497,0.303913 -15.698661,0.306013 l -15.0728798,0.0019 -0.28439392,-0.132716 z"
       id="path592" />
    <path
       style="fill:#2e2f42;stroke-width:0.0568788"
       d="M 1.2513334,2.9013159 C 1.2200501,2.8905244 1.1014199,2.8661944 0.98771078,2.8472492 0.72757398,2.8039078 0.35934466,2.5593707 0.17215229,2.3056457 0.03675967,2.1221313 0.0284394,2.0702575 0.0284394,1.4096485 V 0.70844319 L 0.25821239,0.45916891 C 0.38458755,0.32206806 0.5740228,0.16906721 0.67917968,0.11916702 0.85271955,0.03681696 2.2787023,0.0284394 16.122338,0.0284394 c 13.934705,0 15.267685,0.0079433 15.433996,0.09197147 0.439601,0.22210886 0.437986,0.21731082 0.437986,1.30083213 v 0.9748226 l -0.156417,0.1498212 c -0.08603,0.082402 -0.258799,0.195971 -0.383932,0.2523763 -0.21719,0.097901 -0.906403,0.1030117 -15.186637,0.1126146 -8.227517,0.00553 -14.9847173,0.00123 -15.0160006,-0.00956 z"
       id="path594" />
    <path
       style="fill:#2e2f42;stroke-width:0.0568788"
       d="M 0.89423634,21.445026 C 0.59464313,21.351474 0.28187671,21.11881 0.13756701,20.882148 0.04643909,20.732701 0.02883025,20.592885 0.02865201,20.017353 L 0.0284394,19.330826 0.22764999,19.098093 C 0.33721582,18.97009 0.5598027,18.799112 0.72228755,18.718143 L 1.0177145,18.570925 H 16.072275 c 16.445945,0 15.287287,-0.02333 15.733283,0.316844 l 0.188762,0.143976 v 1.022176 1.022176 l -0.268211,0.170095 c -0.147516,0.09355 -0.358678,0.195227 -0.46925,0.225945 -0.129364,0.03594 -5.534319,0.05461 -15.160161,0.05236 -12.3136991,-0.0029 -15.0021552,-0.01693 -15.20246166,-0.07947 z"
       id="path596" />
    <path
       style="fill:#2e2f42;stroke-width:0.0568788"
       d="M 0.89423634,21.445026 C 0.59464313,21.351474 0.28187671,21.11881 0.13756701,20.882148 0.04620919,20.732324 0.0288307,20.59273 0.02865201,20.007278 L 0.0284394,19.310677 0.24173486,19.074073 C 0.35904736,18.94394 0.5830076,18.777746 0.73942428,18.704752 L 1.0238182,18.572036 16.075327,18.571481 c 16.447383,-6.07e-4 15.284,-0.02407 15.731499,0.317255 l 0.19003,0.144943 -0.01549,1.033658 -0.01549,1.033658 -0.297583,0.177765 c -0.163671,0.09777 -0.39403,0.193705 -0.511909,0.213187 -0.117879,0.01948 -6.920335,0.03399 -15.116569,0.03224 -12.2669032,-0.0026 -14.9452758,-0.01662 -15.14558266,-0.07916 z"
       id="path598" />
    <path
       style="fill:#2e2f42;stroke-width:0.0568788"
       d="M 0.70718128,12.06009 C 0.56431427,11.985523 0.35315178,11.820166 0.23793126,11.692631 L 0.0284394,11.460749 0.02865201,10.764147 C 0.02883379,10.168579 0.04531528,10.040564 0.14228879,9.8815138 0.26907904,9.6735592 0.69237829,9.3826188 0.99537883,9.295171 1.1278452,9.2569405 6.2282264,9.2433254 16.238895,9.2544797 l 15.04444,0.016763 0.227515,0.1230242 c 0.491959,0.2660165 0.48347,0.2423457 0.48347,1.3481251 0,1.09784 0.0072,1.076918 -0.455031,1.323478 -0.192757,0.102821 -0.681069,0.106566 -15.385713,0.117993 l -15.18663656,0.0118 z"
       id="path600" />
    <path
       style="fill:#2e2f42;stroke-width:0.0568788"
       d="M 0.98356693,2.8498275 C 0.64823102,2.7591605 0.29008495,2.5144394 0.14194888,2.2747502 0.04482203,2.1175957 0.0284394,1.9913106 0.0284394,1.3997656 V 0.70844319 L 0.25821239,0.45916891 C 0.38458755,0.32206806 0.5740228,0.16906721 0.67917968,0.11916702 0.85271955,0.03681696 2.2787023,0.0284394 16.122338,0.0284394 c 13.934705,0 15.267685,0.0079433 15.433996,0.09197147 0.439601,0.22210886 0.437986,0.21731082 0.437986,1.30083213 v 0.9748226 l -0.156417,0.1498212 c -0.08603,0.082402 -0.258799,0.195971 -0.383932,0.2523763 C 31.236789,2.8961605 30.545752,2.9013045 16.238895,2.9115218 4.2568126,2.9200789 1.1976378,2.9077073 0.98356693,2.8498275 Z"
       id="path602" />
    <path
       style="fill:#2e2f42;stroke-width:0.0568788"
       d="M 0.72772158,12.079007 C 0.59615178,12.015054 0.38498925,11.850429 0.25847156,11.713173 L 0.0284394,11.463618 0.02865201,10.765582 C 0.02883114,10.177497 0.0460731,10.039324 0.13811489,9.8883771 0.2724982,9.6679906 0.66547599,9.3910408 0.96824577,9.3033451 1.1370574,9.2544497 5.0117642,9.2420645 16.238895,9.2545339 l 15.04444,0.016709 0.244094,0.1303373 c 0.475417,0.2538543 0.466891,0.2294075 0.466891,1.3385968 0,1.100349 0.0073,1.079075 -0.455031,1.325693 -0.19276,0.102822 -0.680871,0.10656 -15.385713,0.117804 l -15.18663656,0.01161 z"
       id="path604" />
    <path
       style="fill:#2e2f42;stroke-width:0.0568788"
       d="M 0.89423634,21.445026 C 0.59464313,21.351474 0.28187671,21.11881 0.13756701,20.882148 0.04620919,20.732324 0.0288307,20.59273 0.02865201,20.007278 L 0.0284394,19.310677 0.2381256,19.07858 C 0.35345301,18.950926 0.57016352,18.784482 0.71970446,18.708704 L 0.99159713,18.570925 H 16.065757 c 14.826206,0 15.078979,0.0018 15.367119,0.111315 0.561744,0.213446 0.561444,0.212709 0.561444,1.378701 v 1.015156 l -0.268211,0.170095 c -0.147516,0.09355 -0.358678,0.195227 -0.46925,0.225945 -0.129364,0.03594 -5.534319,0.05461 -15.160161,0.05236 -12.3136991,-0.0029 -15.0021552,-0.01693 -15.20246166,-0.07947 z"
       id="path606" />
    <path
       style="fill:#2e2f42;stroke-width:0.0568788"
       d="M 0.94551058,21.471631 C 0.69063592,21.411454 0.31694619,21.143611 0.15725801,20.90665 0.04069259,20.733679 0.0284394,20.648683 0.0284394,20.013087 v -0.70241 L 0.2381256,19.07858 c 0.11532741,-0.127654 0.33240763,-0.294286 0.48240053,-0.370293 l 0.27271429,-0.138195 15.17348658,0.01464 c 14.688848,0.01417 15.179845,0.01803 15.372562,0.120828 0.463566,0.247275 0.455031,0.221927 0.455031,1.3514 v 1.011171 l -0.242831,0.167071 c -0.133556,0.09189 -0.344719,0.195358 -0.46925,0.229931 -0.267997,0.0744 -30.0221342,0.08078 -30.33672842,0.0065 z"
       id="path608" />
    <path
       style="fill:#2e2f42;stroke-width:0.0568788"
       d="M 0.94551058,21.471631 C 0.69063592,21.411454 0.31694619,21.143611 0.15725801,20.90665 0.04029002,20.733081 0.0284394,20.649336 0.0284394,19.996326 v -0.71917 l 0.24173485,-0.23341 c 0.13295418,-0.128375 0.34986315,-0.287464 0.48202,-0.353531 l 0.24028507,-0.120123 15.17386668,0.01464 15.173868,0.01464 0.227515,0.121925 c 0.434725,0.232968 0.43118,0.221313 0.413717,1.360211 l -0.01557,1.015173 -0.227515,0.155301 c -0.125133,0.08542 -0.334832,0.182604 -0.465998,0.215975 -0.284518,0.07239 -30.0205758,0.07599 -30.32685642,0.0037 z"
       id="path610" />
    <path
       style="fill:#2e2f42;stroke-width:0.0568788"
       d="M 0.94551058,21.471631 C 0.69063592,21.411454 0.31694619,21.143611 0.15725801,20.90665 0.04029002,20.733081 0.0284394,20.649336 0.0284394,19.996326 v -0.71917 L 0.27017425,19.043305 C 0.40312843,18.914686 0.6139119,18.755785 0.73858196,18.690189 L 0.9652548,18.570925 H 16.028009 c 10.668288,0 15.134476,0.01806 15.308592,0.0619 0.135211,0.03405 0.338511,0.138291 0.451778,0.231656 l 0.205941,0.169753 v 1.016783 1.016783 l -0.196511,0.149886 c -0.434038,0.331056 0.575013,0.311442 -15.695931,0.305111 -8.2303665,-0.0032 -15.0507315,-0.02623 -15.15636742,-0.05117 z"
       id="path612" />
    <path
       style="fill:#2e2f42;stroke-width:0.0568788"
       d="M 0.94551058,21.471631 C 0.69063592,21.411454 0.31694619,21.143611 0.15725801,20.90665 0.04019533,20.732941 0.0284394,20.649495 0.0284394,19.992267 v -0.72323 l 0.27545233,-0.257653 c 0.15149879,-0.141709 0.35499138,-0.298785 0.45220571,-0.349056 0.16103955,-0.08328 1.51731376,-0.0914 15.25570956,-0.0914 10.679966,0 15.150675,0.01806 15.324794,0.0619 0.135211,0.03405 0.338511,0.138291 0.451778,0.231656 l 0.205941,0.169753 -1.02e-4,1.033897 -1.02e-4,1.033897 -0.241633,0.151046 c -0.132898,0.08307 -0.344015,0.178915 -0.469148,0.212978 -0.270202,0.07355 -30.0267479,0.07902 -30.33782442,0.0056 z"
       id="path614" />
    <path
       style="fill:#2e2f42;stroke-width:0.0568788"
       d="M 0.96693944,21.475437 C 0.70245426,21.411048 0.4733964,21.273024 0.25595456,21.047015 L 0.05687879,20.840096 0.03812503,20.068389 0.01937127,19.296682 0.2087614,19.097046 c 0.10416457,-0.1098 0.3031819,-0.273096 0.44226078,-0.362879 L 0.90389277,18.570925 H 15.997328 c 10.690402,0 15.165151,0.01806 15.339273,0.0619 0.135211,0.03405 0.338511,0.138291 0.451778,0.231656 l 0.205941,0.169753 -1.14e-4,1.033897 -1.14e-4,1.033897 -0.241633,0.151046 c -0.132898,0.08307 -0.344015,0.178915 -0.469148,0.212978 -0.261177,0.0711 -30.0250596,0.08031 -30.31639545,0.0094 z"
       id="path616" />
    <path
       style="fill:#2e2f42;stroke-width:0.0568788"
       d="M 0.96693944,21.475437 C 0.68632798,21.407122 0.45862091,21.26503 0.23746037,21.020231 L 0.0284394,20.78887 v -0.759916 -0.759917 l 0.27545233,-0.257653 c 0.15149879,-0.141709 0.35499138,-0.298785 0.45220571,-0.349056 0.16104086,-0.08328 1.51852556,-0.0914 15.27057356,-0.0914 16.452304,0 15.438624,-0.01992 15.811232,0.310758 l 0.156417,0.138816 -3.99e-4,1.040766 -3.98e-4,1.040766 -0.194093,0.132162 c -0.458706,0.31234 0.489595,0.294905 -15.697571,0.288607 -8.2303475,-0.0032 -15.0410696,-0.02452 -15.13491956,-0.04736 z"
       id="path618" />
  </g>
</svg>
